<?xml version="1.0" encoding="utf-8"?>
<!-- Generator: Adobe Illustrator 27.8.0, SVG Export Plug-In . SVG Version: 6.00 Build 0)  -->
<svg version="1.1"
	 id="svg2" xmlns:dc="http://purl.org/dc/elements/1.1/" xmlns:sodipodi="http://sodipodi.sourceforge.net/DTD/sodipodi-0.dtd" xmlns:svg="http://www.w3.org/2000/svg" xmlns:rdf="http://www.w3.org/1999/02/22-rdf-syntax-ns#" xmlns:inkscape="http://www.inkscape.org/namespaces/inkscape" xmlns:cc="http://creativecommons.org/ns#" inkscape:export-filename="/home/thockin/src/kubernetes/new.png" inkscape:export-xdpi="460.95001" inkscape:export-ydpi="460.95001" inkscape:version="0.48.4 r9939" sodipodi:docname="logo.svg"
	 xmlns="http://www.w3.org/2000/svg" xmlns:xlink="http://www.w3.org/1999/xlink" x="0px" y="0px" viewBox="0 0 722.8 702"
	 style="enable-background:new 0 0 722.8 702;" xml:space="preserve">
<style type="text/css">
	.st0{display:none;fill:#00658A;}
	.st1{fill:#326CE5;}
	.st2{fill:#FFFFFF;stroke:#FFFFFF;stroke-width:0.25;}
	.st3{display:none;}
	.st4{display:inline;}
	.st5{fill:#C49B7A;}
	.st6{fill:#495059;}
	.st7{fill:#DDAF89;}
	.st8{fill:#D1A582;}
	.st9{fill:#7F9AE6;}
	.st10{fill:#738CD1;}
	.st11{fill:#F6E06A;}
	.st12{fill:#FFDBDB;}
	.st13{fill:#F3E5B7;}
	.st14{fill:#444F58;}
	.st15{fill:#A2D3EE;}
	.st16{display:none;fill:#FFFFFF;}
	.st17{fill:#68182B;}
	.st18{fill:#FBF199;}
	.st19{fill:#FAC135;}
	.st20{fill:#FF801D;}
	.st21{fill:#AA8053;}
	.st22{fill:#8EDBFF;}
	.st23{fill:#D5D5D5;}
	.st24{fill:#00EBED;}
	.st25{fill:#B1D045;}
	.st26{fill:#FF5671;}
	.st27{fill:#00AFB3;}
	.st28{fill:#EF6200;}
	.st29{fill:#FACB1A;}
	.st30{fill:#DF3F58;}
	.st31{fill:#F3AF79;}
	.st32{fill:#FFF7CF;}
	.st33{fill:#EE9E2B;}
	.st34{fill:#FBE134;}
	.st35{fill:#865725;}
	.st36{fill:#D4BA89;}
	.st37{fill:#ABAB38;}
	.st38{fill:#73B9D5;}
	.st39{fill:#CEFFFF;}
</style>
<rect x="-21" y="-25" class="st0" width="790" height="762"/>
<sodipodi:namedview  bordercolor="#666666" borderopacity="1.0" fit-margin-bottom="10" fit-margin-left="10" fit-margin-right="10" fit-margin-top="10" id="base" inkscape:current-layer="g3052" inkscape:cx="277.56851" inkscape:cy="157.54494" inkscape:document-units="px" inkscape:pageopacity="0.0" inkscape:pageshadow="2" inkscape:snap-global="false" inkscape:window-height="822" inkscape:window-maximized="0" inkscape:window-width="1519" inkscape:window-x="51" inkscape:window-y="25" inkscape:zoom="16.190509" pagecolor="#ffffff" showgrid="false">
	</sodipodi:namedview>
<g id="layer1" transform="translate(-6.3260942,-174.7524)" inkscape:groupmode="layer" inkscape:label="Layer 1">
	<g id="g3052">
		
			<path id="path3055" inkscape:connector-curvature="0" inkscape:export-filename="new.png" inkscape:export-xdpi="250.55" inkscape:export-ydpi="250.55" class="st1" d="
			M290.6,179.4c-4.9,0.2-9.8,1.5-14.2,3.6L82.7,275.6c-10.2,4.9-17.5,14-20,24.9L14.8,508.4c-2.2,9.7-0.4,19.8,5,28.2
			c0.7,1,1.4,2,2.1,2.9L156,706.2c7,8.7,17.7,13.8,29,13.8l215,0c11.3,0,21.9-5.1,29-13.8l134-166.7c7-8.7,9.7-20.2,7.2-31.1
			l-47.9-207.9c-2.5-10.9-9.9-20.1-20-24.9L308.5,183C302.9,180.3,296.8,179.1,290.6,179.4z"/>
		
			<path id="path3059" inkscape:connector-curvature="0" inkscape:export-filename="./path3059.png" inkscape:export-xdpi="250.55" inkscape:export-ydpi="250.55" sodipodi:nodetypes="ccccccccsccccscssccsccccccccscccsccccccccccccccscccscsccsccccscscsccccccccscccscsccccsccccscscscccccccccccccccscccsccccccccccccscccccscccccccccccccccccccccccscccscccccccccscccscccc" class="st2" d="
			M292.5,250.2c-6.4,0-11.6,5.8-11.6,12.9c0,0.1,0,0.2,0,0.3c0,1-0.1,2.1,0,3c0.2,4.1,1,7.2,1.6,11c1,8.1,1.8,14.8,1.3,21
			c-0.5,2.4-2.2,4.5-3.8,6l-0.3,4.9c-7,0.6-14,1.6-21,3.2c-30.1,6.8-56,22.3-75.8,43.3c-1.3-0.9-3.5-2.5-4.2-3
			c-2.1,0.3-4.2,0.9-6.9-0.7c-5.2-3.5-9.9-8.3-15.6-14.1c-2.6-2.8-4.5-5.4-7.6-8.1c-0.7-0.6-1.8-1.4-2.6-2.1c-2.4-1.9-5.3-3-8.1-3
			c-3.6-0.1-7,1.3-9.2,4.1c-4,5-2.7,12.7,2.8,17.1c0.1,0,0.1,0.1,0.2,0.1c0.8,0.6,1.7,1.4,2.4,1.9c3.3,2.4,6.3,3.7,9.6,5.6
			c6.9,4.3,12.7,7.8,17.2,12.1c1.8,1.9,2.1,5.2,2.3,6.7l3.7,3.3c-19.9,29.9-29.1,66.9-23.7,104.6l-4.9,1.4c-1.3,1.7-3.1,4.3-5,5
			c-6,1.9-12.7,2.6-20.8,3.4c-3.8,0.3-7.1,0.1-11.1,0.9c-0.9,0.2-2.1,0.5-3.1,0.7c0,0-0.1,0-0.1,0c-0.1,0-0.1,0-0.2,0
			c-6.8,1.7-11.2,7.9-9.8,14.1c1.4,6.2,8.1,10,15,8.5c0,0,0.1,0,0.2,0c0.1,0,0.1-0.1,0.2-0.1c1-0.2,2.2-0.4,3-0.7
			c4-1.1,6.8-2.6,10.4-4c7.7-2.8,14-5.1,20.2-5.9c2.6-0.2,5.3,1.6,6.7,2.4l5.1-0.9c11.6,36.1,36,65.2,66.9,83.5l-2.1,5.1
			c0.8,2,1.6,4.6,1,6.6c-2.3,5.8-6.1,12-10.5,18.9c-2.1,3.2-4.3,5.6-6.2,9.3c-0.5,0.9-1,2.2-1.5,3.1c-3,6.4-0.8,13.7,4.9,16.5
			c5.8,2.8,12.9-0.2,16-6.5c0,0,0,0,0,0c0,0,0,0,0,0c0.4-0.9,1.1-2.1,1.4-2.9c1.6-3.8,2.2-7,3.3-10.6c3.1-7.7,4.8-15.8,9-20.8
			c1.2-1.4,3-1.9,5-2.4l2.6-4.8c26.9,10.3,57,13.1,87.1,6.3c6.9-1.6,13.5-3.6,19.9-6c0.7,1.3,2.1,3.8,2.5,4.5c2,0.6,4.2,1,5.9,3.6
			c3.2,5.4,5.3,11.8,8,19.5c1.2,3.6,1.7,6.9,3.4,10.6c0.4,0.9,1,2.1,1.4,3c3.1,6.4,10.3,9.3,16,6.6c5.7-2.8,7.9-10.1,4.9-16.5
			c-0.4-0.9-1.1-2.3-1.5-3.1c-1.9-3.6-4.1-6.1-6.2-9.2c-4.4-6.9-8-12.6-10.3-18.4c-0.9-3,0.2-4.9,0.9-6.8c-0.4-0.5-1.4-3.3-1.9-4.7
			c32.1-18.9,55.7-49.2,66.8-84.1c1.5,0.2,4.1,0.7,5,0.9c1.7-1.2,3.3-2.7,6.5-2.4c6.2,0.9,12.5,3.2,20.2,5.9c3.6,1.4,6.4,3,10.4,4
			c0.8,0.2,2,0.4,3,0.6c0.1,0,0.1,0.1,0.2,0.1c0.1,0,0.1,0,0.2,0c6.9,1.5,13.6-2.3,15-8.5c1.4-6.2-3-12.5-9.8-14.1
			c-1-0.2-2.4-0.6-3.4-0.8c-4-0.8-7.3-0.6-11.1-0.9c-8.1-0.8-14.8-1.5-20.8-3.4c-2.4-0.9-4.2-3.8-5-5l-4.7-1.4
			c2.4-17.6,1.8-35.8-2.4-54.1c-4.2-18.5-11.7-35.3-21.7-50.2c1.2-1.1,3.5-3.1,4.1-3.7c0.2-2.1,0-4.3,2.2-6.6
			c4.6-4.3,10.3-7.8,17.2-12.1c3.3-1.9,6.3-3.2,9.6-5.6c0.7-0.6,1.8-1.4,2.6-2.1c5.6-4.4,6.8-12.1,2.8-17.1c-4-5-11.7-5.5-17.3-1
			c-0.8,0.6-1.9,1.4-2.6,2.1c-3.1,2.7-5,5.3-7.7,8.1c-5.7,5.8-10.4,10.7-15.6,14.1c-2.2,1.3-5.5,0.9-7,0.8l-4.4,3.1
			c-25.1-26.4-59.4-43.2-96.2-46.5c-0.1-1.5-0.2-4.3-0.3-5.2c-1.5-1.4-3.3-2.7-3.8-5.8c-0.5-6.2,0.3-12.9,1.3-21
			c0.5-3.8,1.4-6.9,1.6-11c0-0.9,0-2.3,0-3.3C304.1,255.9,298.9,250.2,292.5,250.2L292.5,250.2z M278,340.1l-3.4,60.8l-0.2,0.1
			c-0.2,5.4-4.7,9.8-10.2,9.8c-2.3,0-4.3-0.7-6-2l-0.1,0l-49.9-35.4c15.3-15.1,34.9-26.2,57.5-31.3
			C269.7,341.3,273.9,340.6,278,340.1z M307,340.1c26.4,3.2,50.8,15.2,69.5,33.5L327,408.7l-0.2-0.1c-4.4,3.2-10.6,2.4-14-1.9
			c-1.4-1.8-2.1-3.8-2.2-5.9l0,0L307,340.1z M190,396.3l45.5,40.7l0,0.2c4.1,3.6,4.7,9.8,1.3,14.1c-1.4,1.8-3.3,2.9-5.3,3.5l0,0.2
			l-58.4,16.8C170.1,444.7,176.5,418.3,190,396.3z M394.7,396.3c6.8,11,11.9,23.2,14.9,36.5c3,13.1,3.8,26.2,2.5,38.9l-58.7-16.9
			l0-0.2c-5.3-1.4-8.5-6.8-7.3-12.1c0.5-2.2,1.7-4.1,3.2-5.4l0-0.1L394.7,396.3L394.7,396.3z M283.2,440.2h18.7l11.6,14.5l-4.2,18.1
			l-16.7,8.1l-16.8-8.1l-4.2-18.1L283.2,440.2z M343,489.8c0.8,0,1.6,0,2.4,0.2l0.1-0.1l60.4,10.2c-8.8,24.8-25.7,46.3-48.3,60.7
			L334,504.1l0.1-0.1c-2.2-5,0-10.9,5-13.3C340.3,490.2,341.6,489.8,343,489.8L343,489.8z M241.6,490c4.6,0.1,8.7,3.3,9.8,8
			c0.5,2.2,0.3,4.4-0.6,6.3l0.2,0.2l-23.2,56c-21.7-13.9-38.9-34.7-48.2-60.3l59.9-10.2l0.1,0.1C240.2,490.1,240.9,490,241.6,490
			L241.6,490z M292.1,514.6c1.6-0.1,3.2,0.3,4.8,1c2,1,3.6,2.5,4.6,4.4h0.2l29.5,53.3c-3.8,1.3-7.8,2.4-11.8,3.3
			c-22.6,5.1-45.1,3.6-65.4-3.4l29.4-53.2h0C285.2,516.7,288.6,514.7,292.1,514.6z"/>
	</g>
</g>
<g id="Dog" class="st3">
	<g class="st4">
		<path class="st5" d="M568.8,545.2c-8.3-8.7-7.9-22.5,0.9-30.8c8.7-8.3,22.5-7.9,30.8,0.9c37.2,39.3,55.7,36,76.2,27.7
			c11.1-4.6,23.8,0.8,28.4,11.9c4.5,11.1-0.8,23.8-11.9,28.4c-13.8,5.6-26.7,8.5-39.3,8.5C625.3,591.8,598.7,576.8,568.8,545.2z"/>
		<path class="st5" d="M426.6,652.7c-2.8-36.6-1.7-63.9,3.9-94.3c2.7-14.8,17-24.5,31.7-21.8c14.8,2.8,24.5,17,21.8,31.7
			c-4.8,25.7-5.7,48.2-3.2,80.1c1.2,15-10,28.1-25,29.2c-0.7,0.1-1.4,0.1-2.1,0.1C439.7,677.8,427.8,667,426.6,652.7z"/>
		<path class="st5" d="M533.6,652.7c-2.5-32-2.4-53.9-2.2-84.1c0-4,0-8.1,0.1-12.4c0.1-15,12.2-27.1,27.2-27.1h0.1
			c15,0.1,27.2,12.3,27.1,27.3c0,4.4,0,8.5-0.1,12.5c-0.2,28.9-0.3,49.8,2,79.5c1.2,15-10,28.1-25,29.2c-0.7,0.1-1.4,0.1-2.1,0.1
			C546.7,677.8,534.7,667,533.6,652.7z"/>
		<path class="st5" d="M301.4,522.3c-14.2-4.9-21.8-20.3-16.9-34.5s20.3-21.8,34.5-16.9c24.7,8.5,44.3,3.6,61.6-15.3
			c10.1-11.1,27.3-11.9,38.4-1.8c11.1,10.1,11.9,27.3,1.8,38.4c-22.3,24.4-49.8,37-79.8,37C328.2,529.2,314.9,526.9,301.4,522.3z"/>
		<path class="st5" d="M531.4,568.6c-0.1,14.8-0.2,27.6,0.1,40.6c19.5-2.2,37.8-7.9,54.3-16.3c0-7.6,0-15.4,0.1-24
			c0-4,0-8.2,0.1-12.5c0.1-15-12.1-27.3-27.1-27.3c0,0-0.1,0-0.1,0c-15,0-27.1,12.1-27.2,27.1C531.5,560.5,531.5,564.6,531.4,568.6z
			"/>
		<path class="st5" d="M426.7,585.6c15.8,10.1,33.7,17.5,53.1,21.4c0.5-13.2,1.9-25.5,4.3-38.6c2.8-14.8-7-29-21.8-31.7
			c-14.8-2.8-29,7-31.7,21.8C428.9,567.7,427.6,576.6,426.7,585.6z"/>
		<path class="st5" d="M362.2,469.9c0,0.9,0,1.8,0,2.7c0,18.2,3.9,35.6,10.9,51.5c17.5-5.8,33.7-16.5,47.7-31.9
			c10.1-11.1,9.3-28.3-1.8-38.4c-11.1-10.1-28.3-9.3-38.4,1.8C374.8,461.9,368.7,466.7,362.2,469.9z"/>
		<path class="st5" d="M512.6,592.5c73.3,0,132.6-53.7,132.6-120s-59.4-120-132.6-120c-73.3,0-132.6,53.7-132.6,120
			S439.4,592.5,512.6,592.5z"/>
		<path class="st5" d="M375.8,424.6c-6,14.1-0.5,30.5,12.8,38.3c36.4,21.4,78.8,33.6,124.1,33.6c45.3,0,87.7-12.3,124.1-33.6
			c13.2-7.8,18.7-24.1,12.8-38.3c-4.4-10.4-10.1-20.1-17-29.1c-32.5,27-74.3,43.2-119.8,43.2s-87.3-16.2-119.8-43.2
			C385.9,404.5,380.2,414.2,375.8,424.6z"/>
		<path class="st5" d="M575.5,488.4c21.7-5.7,42.3-14.4,61.2-25.5c13.2-7.8,18.7-24.1,12.8-38.3c-4.4-10.4-10.1-20.1-17-29.1
			C615,410,594.9,421.4,573,428.8C581.2,448.4,583.5,472.4,575.5,488.4z"/>
		<path class="st5" d="M540.6,236.3c-8.5-11.7-5.9-28,5.8-36.5l32.2-23.4c16.3-11.9,36.4-17.9,56.6-17c20.2,0.9,39.6,8.7,54.8,22
			l21.1,18.4c10.9,9.5,12,26,2.5,36.9c-9.5,10.9-26,12-36.9,2.5l-21.1-18.4c-13.1-11.5-32.1-12.3-46.2-2.1L577.2,242
			c-4.6,3.4-10,5-15.4,5C553.7,247,545.7,243.3,540.6,236.3z"/>
		<path class="st5" d="M448.1,242l-32.2-23.4c-14.1-10.2-33.1-9.4-46.2,2.1l-21.1,18.4c-10.9,9.5-27.4,8.4-36.9-2.5
			c-9.5-10.9-8.4-27.4,2.5-36.9l21.1-18.4c15.2-13.3,34.7-21.1,54.8-22c20.1-0.9,40.2,5.1,56.6,17l32.2,23.4
			c11.7,8.5,14.3,24.8,5.8,36.5c-5.1,7-13.1,10.8-21.2,10.8C458.1,247,452.7,245.4,448.1,242z"/>
		<path class="st5" d="M686.6,307.7c-20.1-92-83.3-142.4-174-142.4c-90.7,0-153.9,50.4-173.9,142.4
			c-18.7,85.7,41.2,146.5,173.9,146.5S705.3,393.4,686.6,307.7z"/>
		<path class="st5" d="M490.8,464.2c20.5,0,37.1,16.6,37.1,37.1c0,20.5-16.6,37-37.1,37c-20.5,0-37.1-16.6-37.1-37
			C453.7,480.7,470.3,464.2,490.8,464.2z"/>
		<path class="st5" d="M599.7,345.9c21.4,0,38.8-13.8,38.8-30.9c0-17.1-17.4-30.9-38.8-30.9c-21.4,0-38.8,13.8-38.8,30.9
			C560.9,332.1,578.3,345.9,599.7,345.9z"/>
		<path class="st5" d="M381.9,345.9c21.4,0,38.8-13.8,38.8-30.9c0-17.1-17.4-30.9-38.8-30.9s-38.8,13.8-38.8,30.9
			C343.1,332.1,360.5,345.9,381.9,345.9z"/>
		<g>
			<path class="st5" d="M567.3,284.2v-13.7c0-5.4,4.4-9.8,9.8-9.8c5.4,0,9.8,4.4,9.8,9.8v13.7c0,5.4-4.4,9.8-9.8,9.8
				C571.7,293.9,567.3,289.6,567.3,284.2z"/>
			<path class="st5" d="M394.8,284.2v-13.7c0-5.4,4.4-9.8,9.8-9.8c5.4,0,9.8,4.4,9.8,9.8v13.7c0,5.4-4.4,9.8-9.8,9.8
				C399.1,293.9,394.8,289.6,394.8,284.2z"/>
			<path class="st5" d="M481,325.7v29.2c-5.8,0.6-10.6,1.9-14.6,3.8c-4.9,2.3-6.9,8.2-4.6,13c2.3,4.9,8.2,6.9,13,4.6
				c2.3-1.1,6.8-2.4,15.9-2.4c5.2,0,10.1,1.6,14.3,4.7c1.8,1.3,3.8,1.9,5.8,1.9c3,0,5.9-1.4,7.8-3.9c3.2-4.3,2.3-10.4-2-13.6
				c-4.9-3.6-10.4-6.1-16.2-7.5v-29.8l19-8.4c7-3.1,9.5-11.9,5.2-18.3c-3.2-4.7-8-8.1-13.5-9.6c-13.3-3.5-27.4-3.5-40.7,0
				c-5.5,1.4-10.3,4.8-13.6,9.6c-4.3,6.4-1.8,15.1,5.2,18.3L481,325.7z"/>
			<path class="st5" d="M406.5,118.8c5.1-18.2,23.8-29.1,42.1-24.5l41.3,10.4c14.9,3.8,30.5,3.8,45.5,0l41.3-10.4
				c18.3-4.6,37,6.2,42.1,24.5l24,86.5H382.5L406.5,118.8z"/>
		</g>
		<path class="st5" d="M630.6,161.4H394.7l-12.2,43.9h260.3L630.6,161.4z"/>
		<path class="st5" d="M351.8,223.1c0,9.9,8,17.9,17.9,17.9h285.8c9.9,0,17.9-8,17.9-17.9c0-9.9-8-17.9-17.9-17.9H369.7
			C359.8,205.2,351.8,213.2,351.8,223.1z"/>
		<path class="st5" d="M284.2,511.9l-29-79.6c-4.3-11.7,1.8-24.6,13.5-28.9c11.7-4.3,24.6,1.8,28.9,13.5l29,79.6
			c4.3,11.7-1.8,24.6-13.5,28.9C301.4,529.7,288.5,523.6,284.2,511.9z"/>
		<path class="st5" d="M264.1,335.4c30.6,0,55.4,24.8,55.4,55.4s-24.8,55.4-55.4,55.4s-55.4-24.8-55.4-55.4S233.5,335.4,264.1,335.4
			z"/>
		<path class="st5" d="M236.6,449.8c-15.8-7.4-27.7-20.4-33.7-36.8c-6-16.4-5.2-34,2.2-49.8c7.4-15.8,20.4-27.7,36.8-33.7
			s34-5.2,49.8,2.2c15.8,7.4,27.7,20.4,33.7,36.8c6,16.4,5.2,34-2.2,49.8c-7.4,15.8-20.4,27.7-36.8,33.7c-7.3,2.6-14.8,4-22.3,4
			C254.7,456,245.4,453.9,236.6,449.8z M248.5,347.9c-11.5,4.2-20.6,12.6-25.8,23.6c-5.2,11-5.7,23.4-1.5,34.9
			c4.2,11.5,12.6,20.6,23.6,25.8c11.1,5.2,23.4,5.7,34.9,1.5c11.5-4.2,20.6-12.5,25.8-23.6c5.1-11.1,5.7-23.4,1.5-34.9
			c-4.2-11.5-12.6-20.6-23.6-25.8c-6.1-2.9-12.7-4.3-19.3-4.3C258.9,345.1,253.6,346,248.5,347.9z"/>
		<path class="st5" d="M626.2,506.7c-41.6-13.7-60.9-39.3-75-57.9c-9.8-13-15.8-20.5-25.1-24.3c-13.9-5.7-20.6-21.6-14.9-35.5
			c5.7-13.9,21.6-20.6,35.5-14.9c23.5,9.6,36.4,26.7,47.8,41.8c12.4,16.4,23.2,30.6,48.7,39.1c14.3,4.7,22,20.1,17.3,34.4
			c-3.8,11.4-14.4,18.7-25.8,18.7C631.9,508,629.1,507.6,626.2,506.7z"/>
	</g>
	<g class="st4">
		<path class="st6" d="M568.8,545.2c-8.3-8.7-7.9-22.5,0.9-30.8c8.7-8.3,22.5-7.9,30.8,0.9c37.2,39.3,55.7,36,76.2,27.7
			c11.1-4.6,23.8,0.8,28.4,11.9c4.5,11.1-0.8,23.8-11.9,28.4c-13.8,5.6-26.7,8.5-39.3,8.5C625.3,591.8,598.7,576.8,568.8,545.2z"/>
		<path class="st7" d="M426.6,652.7c-2.8-36.6-1.7-63.9,3.9-94.3c2.7-14.8,17-24.5,31.7-21.8c14.8,2.8,24.5,17,21.8,31.7
			c-4.8,25.7-5.7,48.2-3.2,80.1c1.2,15-10,28.1-25,29.2c-0.7,0.1-1.4,0.1-2.1,0.1C439.7,677.8,427.8,667,426.6,652.7z"/>
		<path class="st7" d="M533.6,652.7c-2.5-32-2.4-53.9-2.2-84.1c0-4,0-8.1,0.1-12.4c0.1-15,12.2-27.1,27.2-27.1h0.1
			c15,0.1,27.2,12.3,27.1,27.3c0,4.4,0,8.5-0.1,12.5c-0.2,28.9-0.3,49.8,2,79.5c1.2,15-10,28.1-25,29.2c-0.7,0.1-1.4,0.1-2.1,0.1
			C546.7,677.8,534.7,667,533.6,652.7z"/>
		<path class="st7" d="M301.4,522.3c-14.2-4.9-21.8-20.3-16.9-34.5s20.3-21.8,34.5-16.9c24.7,8.5,44.3,3.6,61.6-15.3
			c10.1-11.1,27.3-11.9,38.4-1.8c11.1,10.1,11.9,27.3,1.8,38.4c-22.3,24.4-49.8,37-79.8,37C328.2,529.2,314.9,526.9,301.4,522.3z"/>
		<path class="st8" d="M531.4,568.6c-0.1,14.8-0.2,27.6,0.1,40.6c19.5-2.2,37.8-7.9,54.3-16.3c0-7.6,0-15.4,0.1-24
			c0-4,0-8.2,0.1-12.5c0.1-15-12.1-27.3-27.1-27.3c0,0-0.1,0-0.1,0c-15,0-27.1,12.1-27.2,27.1C531.5,560.5,531.5,564.6,531.4,568.6z
			"/>
		<path class="st8" d="M426.7,585.6c15.8,10.1,33.7,17.5,53.1,21.4c0.5-13.2,1.9-25.5,4.3-38.6c2.8-14.8-7-29-21.8-31.7
			c-14.8-2.8-29,7-31.7,21.8C428.9,567.7,427.6,576.6,426.7,585.6z"/>
		<path class="st8" d="M362.2,469.9c0,0.9,0,1.8,0,2.7c0,18.2,3.9,35.6,10.9,51.5c17.5-5.8,33.7-16.5,47.7-31.9
			c10.1-11.1,9.3-28.3-1.8-38.4c-11.1-10.1-28.3-9.3-38.4,1.8C374.8,461.9,368.7,466.7,362.2,469.9z"/>
		<path class="st7" d="M512.6,592.5c73.3,0,132.6-53.7,132.6-120s-59.4-120-132.6-120c-73.3,0-132.6,53.7-132.6,120
			S439.4,592.5,512.6,592.5z"/>
		<path class="st9" d="M375.8,424.6c-6,14.1-0.5,30.5,12.8,38.3c36.4,21.4,78.8,33.6,124.1,33.6c45.3,0,87.7-12.3,124.1-33.6
			c13.2-7.8,18.7-24.1,12.8-38.3c-4.4-10.4-10.1-20.1-17-29.1c-32.5,27-74.3,43.2-119.8,43.2s-87.3-16.2-119.8-43.2
			C385.9,404.5,380.2,414.2,375.8,424.6z"/>
		<path class="st10" d="M575.5,488.4c21.7-5.7,42.3-14.4,61.2-25.5c13.2-7.8,18.7-24.1,12.8-38.3c-4.4-10.4-10.1-20.1-17-29.1
			C615,410,594.9,421.4,573,428.8C581.2,448.4,583.5,472.4,575.5,488.4z"/>
		<path class="st6" d="M540.6,236.3c-8.5-11.7-5.9-28,5.8-36.5l32.2-23.4c16.3-11.9,36.4-17.9,56.6-17c20.2,0.9,39.6,8.7,54.8,22
			l21.1,18.4c10.9,9.5,12,26,2.5,36.9c-9.5,10.9-26,12-36.9,2.5l-21.1-18.4c-13.1-11.5-32.1-12.3-46.2-2.1L577.2,242
			c-4.6,3.4-10,5-15.4,5C553.7,247,545.7,243.3,540.6,236.3z"/>
		<path class="st6" d="M448.1,242l-32.2-23.4c-14.1-10.2-33.1-9.4-46.2,2.1l-21.1,18.4c-10.9,9.5-27.4,8.4-36.9-2.5
			c-9.5-10.9-8.4-27.4,2.5-36.9l21.1-18.4c15.2-13.3,34.7-21.1,54.8-22c20.1-0.9,40.2,5.1,56.6,17l32.2,23.4
			c11.7,8.5,14.3,24.8,5.8,36.5c-5.1,7-13.1,10.8-21.2,10.8C458.1,247,452.7,245.4,448.1,242z"/>
		<path class="st7" d="M686.6,307.7c-20.1-92-83.3-142.4-174-142.4c-90.7,0-153.9,50.4-173.9,142.4
			c-18.7,85.7,41.2,146.5,173.9,146.5S705.3,393.4,686.6,307.7z"/>
		<path class="st11" d="M490.8,464.2c20.5,0,37.1,16.6,37.1,37.1c0,20.5-16.6,37-37.1,37c-20.5,0-37.1-16.6-37.1-37
			C453.7,480.7,470.3,464.2,490.8,464.2z"/>
		<path class="st12" d="M599.7,345.9c21.4,0,38.8-13.8,38.8-30.9c0-17.1-17.4-30.9-38.8-30.9c-21.4,0-38.8,13.8-38.8,30.9
			C560.9,332.1,578.3,345.9,599.7,345.9z"/>
		<path class="st12" d="M381.9,345.9c21.4,0,38.8-13.8,38.8-30.9c0-17.1-17.4-30.9-38.8-30.9s-38.8,13.8-38.8,30.9
			C343.1,332.1,360.5,345.9,381.9,345.9z"/>
		<g>
			<path class="st6" d="M567.3,284.2v-13.7c0-5.4,4.4-9.8,9.8-9.8c5.4,0,9.8,4.4,9.8,9.8v13.7c0,5.4-4.4,9.8-9.8,9.8
				C571.7,293.9,567.3,289.6,567.3,284.2z"/>
			<path class="st6" d="M394.8,284.2v-13.7c0-5.4,4.4-9.8,9.8-9.8c5.4,0,9.8,4.4,9.8,9.8v13.7c0,5.4-4.4,9.8-9.8,9.8
				C399.1,293.9,394.8,289.6,394.8,284.2z"/>
			<path class="st6" d="M481,325.7v29.2c-5.8,0.6-10.6,1.9-14.6,3.8c-4.9,2.3-6.9,8.2-4.6,13c2.3,4.9,8.2,6.9,13,4.6
				c2.3-1.1,6.8-2.4,15.9-2.4c5.2,0,10.1,1.6,14.3,4.7c1.8,1.3,3.8,1.9,5.8,1.9c3,0,5.9-1.4,7.8-3.9c3.2-4.3,2.3-10.4-2-13.6
				c-4.9-3.6-10.4-6.1-16.2-7.5v-29.8l19-8.4c7-3.1,9.5-11.9,5.2-18.3c-3.2-4.7-8-8.1-13.5-9.6c-13.3-3.5-27.4-3.5-40.7,0
				c-5.5,1.4-10.3,4.8-13.6,9.6c-4.3,6.4-1.8,15.1,5.2,18.3L481,325.7z"/>
			<path class="st6" d="M406.5,118.8c5.1-18.2,23.8-29.1,42.1-24.5l41.3,10.4c14.9,3.8,30.5,3.8,45.5,0l41.3-10.4
				c18.3-4.6,37,6.2,42.1,24.5l24,86.5H382.5L406.5,118.8z"/>
		</g>
		<path class="st13" d="M630.6,161.4H394.7l-12.2,43.9h260.3L630.6,161.4z"/>
		<path class="st6" d="M351.8,223.1c0,9.9,8,17.9,17.9,17.9h285.8c9.9,0,17.9-8,17.9-17.9c0-9.9-8-17.9-17.9-17.9H369.7
			C359.8,205.2,351.8,213.2,351.8,223.1z"/>
		<path class="st14" d="M284.2,511.9l-29-79.6c-4.3-11.7,1.8-24.6,13.5-28.9c11.7-4.3,24.6,1.8,28.9,13.5l29,79.6
			c4.3,11.7-1.8,24.6-13.5,28.9C301.4,529.7,288.5,523.6,284.2,511.9z"/>
		<path class="st15" d="M264.1,335.4c30.6,0,55.4,24.8,55.4,55.4s-24.8,55.4-55.4,55.4s-55.4-24.8-55.4-55.4
			S233.5,335.4,264.1,335.4z"/>
		<path class="st9" d="M236.6,449.8c-15.8-7.4-27.7-20.4-33.7-36.8c-6-16.4-5.2-34,2.2-49.8c7.4-15.8,20.4-27.7,36.8-33.7
			s34-5.2,49.8,2.2c15.8,7.4,27.7,20.4,33.7,36.8c6,16.4,5.2,34-2.2,49.8c-7.4,15.8-20.4,27.7-36.8,33.7c-7.3,2.6-14.8,4-22.3,4
			C254.7,456,245.4,453.9,236.6,449.8z M248.5,347.9c-11.5,4.2-20.6,12.6-25.8,23.6c-5.2,11-5.7,23.4-1.5,34.9
			c4.2,11.5,12.6,20.6,23.6,25.8c11.1,5.2,23.4,5.7,34.9,1.5c11.5-4.2,20.6-12.5,25.8-23.6c5.1-11.1,5.7-23.4,1.5-34.9
			c-4.2-11.5-12.6-20.6-23.6-25.8c-6.1-2.9-12.7-4.3-19.3-4.3C258.9,345.1,253.6,346,248.5,347.9z"/>
		<path class="st5" d="M626.2,506.7c-41.6-13.7-60.9-39.3-75-57.9c-9.8-13-15.8-20.5-25.1-24.3c-13.9-5.7-20.6-21.6-14.9-35.5
			c5.7-13.9,21.6-20.6,35.5-14.9c23.5,9.6,36.4,26.7,47.8,41.8c12.4,16.4,23.2,30.6,48.7,39.1c14.3,4.7,22,20.1,17.3,34.4
			c-3.8,11.4-14.4,18.7-25.8,18.7C631.9,508,629.1,507.6,626.2,506.7z"/>
	</g>
</g>
<g id="Astronaut">
	<g>
		<path class="st16" d="M285.4,422.2c-10.9,31.6,6.6,59.2,39.7,59.2c38.7,0,74.3,4.4,112.8-9.4c1.7,22.3-7.5,27.1-20.3,45.1
			c-6.3,8.8-12,18-16.9,27.6c-7.2,14-4.2,6.7-16.6,5.7c-42.4-3.6-49.6,39.3-32,67.9c15,24.5,58.3,55.1,81.5,22.5
			c15.7-22.1,39.1-65.2,66-77.9c32.9-15.6,56.2,18.9,75.6,38.4c9.7,9.8,9.3,23.6,21.8,31.8c16.6,10.9,41,3.1,56.2-6.7
			c25.7-16.7,48.4-50.3,20.5-75.8c-16.3-14.9-36.6-2.3-47.1-16.8c-6.7-9.2-14.1-18-22.1-26.1c-11.4-11.6-3.7-14-1.5-29
			c8.7,9.8,4.2,20.5,12.4,30.6c10.7,13.1,16.4-2.3,23.3,13.9c14.4,33.9,70.1-2.7,66.4-30.8c-2.2-16.3-15.5-34.7-28.9-43.8
			c-17.9-12.2-31-30.3-50-42.8c-7.6-5-32.6-15.2-23.4-28.9c10.4-15.4,25-18.5,28.1-41c1.8-12.6,1.4-30.3-8.1-40.2
			c-12.9-13.4-13.2-36.2-26.8-52c-26.4-30.7-71.9-37.9-109.8-28.6c-38.9,9.5-68.1,38.9-77.8,77.6c-35.6,29.6-1.7,75.8,22.6,99.8
			c-17.7,5.4-35.9,9.5-54,13.5c-15.7,0-14.6-6.5-29.9-12.9c-11.5-4.9-26.5-0.4-27.5,13.9C304.2,403.1,291.3,405.2,285.4,422.2
			C282.3,431.4,289.4,410.6,285.4,422.2L285.4,422.2z"/>
		<g>
			<path class="st17" d="M223.8,367.2c-4.5,8.1-5.8,17.4-6.3,26.5c-0.4,7.7-0.8,15.9,3.6,22.6c4.1,6.1,11.1,9.6,17.9,11.6
				c12.3,3.6,26.5,5.5,39.3,3.6c0.8-0.1,1.5-0.3,2.3-0.4c14.2,11.2,32.5,15.1,50.2,16.5c19.3,1.5,38.9,0.3,58-2.8
				c7.9-1.2,15.7-2.9,23.5-4.9c-1.8,9.4-3,18.9-3.5,28.4c-0.3,5-0.4,10-0.2,15c0.1,1.5,0.1,3.1,0.3,4.6
				c-32.2,24.2-62.9,53.6-82.9,88.9c-5.5-6.9-12.4-13.9-21.2-16.2c-18.3-4.8-35.8,5.7-42.3,15.8c-3.7,5.8-4.2,13.6-3.4,20.3
				c3.4,23.3,14.6,46.7,33.1,61.9c8.7,7.1,24.7,16.1,36.6,12.3c9.5-3.1,19.4-12.4,23.5-27.6c10.7-2.9,19.9-9.7,28.4-16.6
				c7.7-6.3,14.9-13.1,22.1-19.9c13.6-12.8,28.3-26.9,46.8-32c9.8-2.7,19.9-1.5,29.7,0.5c8.9,1.8,17.4,4.7,25.3,9.3
				c12.9,7.4,22.3,19,30.1,31.5c9.2,14.9,16.9,30.8,29.1,43.6c-1.5,17.2,1.4,24,8.3,30.4c6.7,6.3,17.7,7.7,26.4,7.8
				c26.9,0.4,53.2-15.3,70.2-35.4c2.8-3.4,5.4-7.4,6.8-11.7c3-9.1-2.2-30.6-21-40.9c-8.9-4.9-18.8-3.8-28.2-1
				c-2.3,0.7-4.6,1.5-6.9,2.4c-4-13.5-10.2-26.3-17-38.6c-8.3-15-18-29.3-29.1-42.4c15.5-14.8,20.1-37.3,25.1-57.7
				c1.8,1.8,3.5,3.7,5.2,5.6c9.3,10.7,16.8,22.8,22.7,35.8c-0.5,1.5-0.8,3.1-1.1,4.7c-0.9,4.9-1.4,9.9-0.6,14.8
				c0.7,3.8,2.3,8.7,6.6,9.4c5.7,1,9.2-5.5,12-9.2c0.5-0.6,1-1.3,1.6-1.8c0.1-0.1,0.2-0.1,0.3-0.1c0.9,0.4,1.7,1.9,2.2,2.9
				c5,9.7,4.8,20.9,7.2,31.3c3.3,14.3,21.8,11.6,32.1,7.8c7.2-2.6,14.7-6.4,20.9-10.9c6.3-4.5,10.1-10.9,10.4-18.7
				c0.3-8.1-2.5-15.9-5.4-23.2c-2.6-6.5-5.6-12.9-9.5-18.7c-5.1-7.7-12-14.9-20.9-18.1c-5-18-18.1-33.7-30.6-46.9
				c-11.8-12.5-25-23.9-39.3-33.6c0.4-11-0.3-22-2.9-32.7c2.7-2.2,5.2-4.6,7.6-7.1c3.6-3.8,6.9-7.8,9.9-12.1c1,1,2.4,1.7,4.1,1.9
				c4.6,0.5,9.2-2.7,12.6-5.5c17.8-15.5,21.6-46.1,18.2-60c-1-4.3-3.8-9.1-8.5-10.1c-1.6-0.3-3.1-0.2-4.5,0.2
				c2.4-20.1,0.8-40.8-7.5-59.4c-7.5-16.9-20.1-31.1-35.5-41.3c-29.4-19.5-67.6-26.5-102.3-21.3c-15.7,2.4-31,7.9-44.7,16.2
				c-18.6,11.2-36.7,28.3-50,60.5c-13.7,5.8-23.5,19.7-25.8,34.3c-2,12.6,2.3,29,14.9,34.5c1.2,8.1,3.4,16.1,6.5,23.7
				c9.5,23.5,20.6,32.8,29,38.9c-3.9,1.4-8.5,2.2-12.4,2.9c-9.5,1.7-19.1,2.8-28.6,3.7c-20,1.9-40,3-60,3.8
				c-8.1,0.3-16.2,0.6-24.3,1c-0.7-1.8-1.5-3.6-2.4-5.3c-2.9-5.9-6.5-11.5-11.1-16.3c-3.8-4-9.4-8.2-15.2-8
				c-5.3,0.2-7.9,4.6-7.5,9.6c0.3,3.4,1.7,6.7,3.1,9.8c0.4,0.9,0.9,1.9,1.2,2.9c0.1,0.3,0,0.6,0.1,0.8c0,0,0,0,0,0
				c-0.5,0-1,0.1-1.5,0.1c-2.3,0-4.8-0.8-7-1.4c-5.1-1.5-10.1-3.7-15-5.8c-4.9-2.1-10.4-5.7-16-5.3
				C230.9,357.2,226.6,362.2,223.8,367.2L223.8,367.2z"/>
			<path class="st18" d="M389.6,267.6c1.8-10.1,7.5-19.8,15.9-25.7c-0.4,1.1-0.8,2.2-1.2,3.4c-4,12.2-7.1,24.5-7.4,37.4
				c-0.1,3.6,0,7.2,0.3,10.8C390,287.7,388,276.4,389.6,267.6L389.6,267.6z"/>
			<path class="st18" d="M410.6,494.6c3.6,8.6,12.4,14.3,20.5,18.2c11.3,5.6,23.9,8.9,36.3,10.9c13.5,2.2,27.4,3,41,1.8
				c11.5-1.1,23.6-3.6,33.5-10c1.7-1.1,3.3-2.3,4.8-3.6c5.4,4.6,4.3,6.4-1.7,10c-10.5,6.2-22.2,10.3-34.4,12.1
				c-28,4.1-57.3-3.4-82.3-15.8c-5.8-2.9-11.9-6.1-17.4-10C403.1,502.8,403,500.4,410.6,494.6L410.6,494.6z"/>
			<path class="st19" d="M533.8,387.4c-22.4-0.3-44.8-5-65.6-12.9c-6.7-2.5-13.3-5.4-19.7-8.8c-5-2.7-4.2-3.6,1.8-2.8
				c28.9,4.1,57.6,11.6,85.1,21.7C542.4,387.3,541.6,387.5,533.8,387.4L533.8,387.4z"/>
			<path class="st20" d="M451.4,374.3c2.4,1.2,4.9,2.2,7.4,3.3c-4.6,12.7-7.9,25.9-10.4,39.2c-2.7,14.1-4.5,28.6-4.2,43
				c0.1,6.9,1,14.1,4.5,20.2c3.7,6.4,10.3,10.2,16.8,13.2c13,5.9,27.1,9.5,41.3,10.4c13.9,0.8,27.9-1.1,40.7-6.6
				c-2.3,8.2-3.4,10.4-11.7,15c-5.7,3.1-12.3,4.9-18.5,6c-12.5,2.3-25.5,2.3-38.1,1c-12.5-1.3-25.1-3.8-37-8.3
				c-8.4-3.2-18-7.5-23.6-14.9c-4.3-5.7-3.7-13.8-3.6-21c0.6-31.7,9.8-63.5,21.4-92.8c1.7-4.2,3.4-8.4,5.2-12.6
				C444.9,371.2,448.2,372.8,451.4,374.3L451.4,374.3z"/>
			<path class="st21" d="M334.3,657.3c-6,15-25.7,5.3-34.6-1.1c-19.1-13.8-30.7-37.1-34.1-60.1c-2.2-16.8,8.7-24.6,21-18.9
				c15.9,7.5,28.2,22.8,36.8,37.8c3.5,6.1,6.9,12.5,9.2,19.2C335.2,641.2,337.2,650,334.3,657.3L334.3,657.3z"/>
			<path class="st18" d="M342.2,650.4c0.4-12.1-6.1-25.2-11.3-35c-9.1-17.2-22.3-33.9-39.8-43.1c-2.4-1.3-5-2.3-7.7-3
				c5.4-2.5,11.1-3.8,17.4-3c16.3,2.1,28.5,25.3,33.6,34.9c4.7,8.8,8.5,18.1,11.4,27.3C348.7,637.7,346.5,644.2,342.2,650.4z"/>
			<path class="st20" d="M382.4,616.9c-8.6,7.5-18,15.4-28.9,19.3c0-2.2-0.2-4.3-0.7-6.5c-1.9-7.8-5.2-15.4-8.6-22.6
				c-4-8.6-8.6-17-14-24.8c2.7-5,5.7-10,8.9-14.7c6-9.1,13.3-13.1,24.6-9.1c14.1,4.9,24.8,19.5,26.8,34.8
				C392.6,608.3,389.5,610.9,382.4,616.9L382.4,616.9z"/>
			<path class="st19" d="M407.4,593.9c-4.5,4.1-8.9,8.2-13.3,12.4c3.1-21.7-9-45.6-30.9-52.1c-4.5-1.3-9.1-1.6-13.7-1.1
				c20.6-26.4,26.1-29.6,42.4-24c5,1.7,9.7,4.2,13.9,7.5c8.8,7,14.6,17.2,15.6,28.4C423,583.1,417,585.2,407.4,593.9L407.4,593.9z"
				/>
			<path class="st21" d="M664,658.3c-13.5,15.8-32.5,28.4-53.2,32.1c-9.7,1.7-20.2,1.7-29.5-2.2c-4.6-1.9-8.1-5.5-8.4-10.7
				c0-0.2,0-0.4,0-0.5c-0.2-6.8,4.5-12.9,9-17.4c5.6-5.6,12.5-9.7,19.3-13.6c15-8.7,31.9-14.6,49.4-14.8
				C669.7,630.8,675.7,644.1,664,658.3L664,658.3z"/>
			<path class="st18" d="M623.2,616.6c7.4-2.8,16.6-5.6,24.5-3.1c6.8,2.2,11.7,7,15.4,12.7c-9.9-3.1-21.3-1.7-31.2,0.5
				c-9.7,2.1-18.9,5.6-27.7,10.2c-12,6.2-27,14.4-33.9,26.9c-0.3-7.3,1.8-14.5,7.2-19.5c5.8-5.2,12.3-9.7,18.9-13.9
				C604.9,625.1,613.7,620.2,623.2,616.6L623.2,616.6z"/>
			<path class="st20" d="M606.7,595.1c2.7,6.1,5.1,12.3,7,18.6c-6.2,2.8-12.1,6.1-17.8,9.6c-7.6,4.7-15.2,9.8-21.8,15.7
				c-4.1,3.6-6.8,8-8.4,12.8c-3.7-4.2-6.9-8.8-10-13.5c-4.7-7.3-8.2-9.4-3.9-18.2c4.3-8.7,11.8-16,20-21c9.9-6.1,22.7-9.9,34-5.9
				C606.1,593.8,606.4,594.4,606.7,595.1L606.7,595.1z"/>
			<path class="st19" d="M590.2,564.2c4.9,7.9,9.4,16,13.4,24.3c-19.3-4.6-41,8.3-51.7,23.7c-2.3,3.3-4.2,6.9-5.5,10.7
				c-1.5-2.7-3.1-5.3-4.6-7.9c-2.7-4.4-5.5-8.8-8.6-12.9c-5.3-7.1-8-7.4-4.8-15.1c6.9-16.5,23.5-29.6,41.2-33
				C581.9,551.7,585.7,556.9,590.2,564.2L590.2,564.2z"/>
			<path class="st20" d="M580.3,549.4c-24.7-0.9-50.1,17.5-57.2,41.1c-3.3-3.3-6.9-6.3-10.9-8.9c-7.5-5-15.8-8.6-24.5-11
				c-9.8-2.7-20.7-4.6-30.9-3.6c-12.2,1.2-23.2,6.6-33.1,13.6c2.5-10.4,2.1-21.3-2.7-31.1c-5.5-11.1-15.4-19.4-27-23.6
				c-5.3-1.9-10.8-3-16.5-3.3c7-6.6,14.3-13,21.7-19c6.3,6.3,14.2,11.1,21.9,15.4c13,7.1,27,12.4,41.4,15.9c24.5,6,50.7,6,74.1-4.3
				c6.6-2.9,12.8-6.5,18.5-10.8C559,523.5,572.1,536.4,580.3,549.4L580.3,549.4z"/>
			<path class="st21" d="M584.4,499.5c-3.3,9.6-7.8,18.8-15.1,25.8c-5.8-6.5-12-12.7-18.6-18.4c0,0,0-0.1,0.1-0.1
				c2-4,3.1-8.6,4.1-12.9c3.8-15.8,6.5-31.8,9.1-47.9c10.5,6.1,20.4,13.1,29.4,21.4C590.5,478.1,588,489,584.4,499.5L584.4,499.5z"
				/>
			<path class="st18" d="M695.7,502.4c6.4,8.4,10.7,19.2,13.7,28.1c2.2,6.5,3.9,14.3,0.6,20.8c-3.3,6.4-11.2,9.9-17.3,13
				c-6.2,3.1-12.7,5.7-19.7,6.1c-5.4,0.3-11.2-0.6-12.2-6.8c-1.1-6.4-6-49-20.4-36c-1.2,1.1-2.1,2.3-3,3.6c-3.2,4.7-7,6.6-7.3-3.3
				c-0.2-6.4,1.5-15.1,8.3-22.5c3.2-3.4,7.1-6.2,11-8.7c5.1-3.3,10.6-6.3,16.7-7.5C679,486.5,686.9,490.9,695.7,502.4L695.7,502.4z"
				/>
			<path class="st20" d="M661.6,458.7c0.9,1.2,1.8,2.5,2.7,3.8c4.3,6.2,8.2,12.8,10.8,20c-10.5-1.1-20.5,3.1-29.5,8.9
				c-5.7,3.7-11.3,8-15.2,13.7c-0.2,0.4-0.4,0.7-0.6,1.1c-2.3-4.7-4.8-9.2-7.6-13.7c-5.7-9.1-9.1-11-9.4-20.5
				c-0.2-5.4,1.2-10.7,4.7-15.5c5.6-7.8,15.3-13,25.1-12.3C653.9,445.1,654.8,449.6,661.6,458.7L661.6,458.7z"/>
			<path class="st19" d="M620,417.1c9.4,7.3,18.4,15.4,26.7,24.1c-16.8-3.6-36.2,9.2-37.8,27.7c-0.2,1.9-0.1,3.8,0.1,5.7
				c-17.2-18-22.6-17.9-25-27.3c-2.8-10.9,2.8-29.5,17.1-35C611,408.5,614.8,413,620,417.1L620,417.1z"/>
			<path class="st20" d="M579.4,443.1c0.2,2,0.5,4,1.1,5.9c-5-3.5-10.2-6.7-15.5-9.8c2.2-13.7,4.4-27.3,7.3-40.9
				c0.5-2.6,1.1-5.1,1.7-7.7c11.6,3.4,22.5,9.5,32.6,16.5C590.3,408.6,578,426.4,579.4,443.1L579.4,443.1z"/>
			<path class="st21" d="M606.2,399.5c-2-1.2-3.9-2.5-6-3.7c-5.8-3.4-11.8-6.5-18-8.9c7.8-2.8,15.1-6.8,21.8-11.7
				C605.7,383.2,606.3,391.4,606.2,399.5z"/>
			<path class="st18" d="M654.7,286.8c5.8,10.4,2.4,33.5-7.8,48.3c-20.7,30-18.3,3.7-11.2-22.8c2.2-8.5,5.2-17.9,11.1-24.6
				C649.2,284.8,652.3,282.6,654.7,286.8L654.7,286.8z"/>
			<path class="st19" d="M495.7,164.1c31.6-7.2,67.3-2.5,96.1,12.4c15.3,7.9,28.7,19.2,38,33.8c9.5,15,13.7,32.6,13.9,50.2
				c-8.2-23.8-26.4-44.2-46.6-58.5c-30.5-21.6-69.1-33-106.4-28.3c-13.6,1.7-26.8,5.7-39.1,11.5
				C464.5,175.1,479.8,167.7,495.7,164.1z"/>
			<path class="st20" d="M454.5,190.9c26.1-12.2,55.7-14.8,84.4-8.3c33.3,7.6,65.3,26.9,85.4,54.7c9.7,13.5,16.5,29.2,17.4,45.9
				c-0.9,1-1.7,2.1-2.4,3.3c-15.5-33.6-40.9-63.1-73.7-80.6c-33.1-17.6-72.2-19.9-107.4-7c-12.9,4.7-25.1,11.6-35.7,20.4
				C429.9,206,439,198.2,454.5,190.9L454.5,190.9z"/>
			<path class="st22" d="M417,335.9c-13.4-22.4-16.9-52.2-10.1-77c5.3-19.2,13.3-32.7,34.8-45.2c19.3-11.2,42-16.7,64.1-16.6
				c36.7,0.1,70.5,18.1,95.5,44.3c14.4,15.2,25.9,33.1,34.2,52.3c-1,2.2-1.8,4.3-2.5,5.9c-4.4,11.6-6.9,23.9-7.9,36.3
				c-7.9,8-17.4,14.6-26.9,20.3c-5.3,3.2-10.9,6.1-16.7,8.4c-4.6,1.8-9.7,3.6-14.7,3.3c-6.1-0.3-12.5-2.8-18.3-4.7
				c-7.5-2.4-14.8-5.2-22.3-7.6c-16.8-5.3-33.9-9.4-51.2-12.5C455.9,339.6,436.5,337.2,417,335.9z"/>
			<path class="st20" d="M427.3,349.9c-2.1-2.3-4.1-4.7-5.9-7.3c34.3,2.7,68.6,8.5,101.5,18.7c7.7,2.4,15.2,5.2,22.9,7.7
				c6.4,2.1,13.2,4.7,20,5.2c11.2,0.9,22.6-5.1,32-10.4c8.8-4.9,17.5-10.6,25.2-17.3c-7.6,11-17.2,20.6-28.7,27.5
				c-17.8,10.8-34.1,13.3-48.8,7.6c-32.6-12.6-67.1-21.8-101.8-26C433.8,354.5,432.8,356,427.3,349.9L427.3,349.9z"/>
			<path class="st20" d="M420.4,373.8c4.4-0.8,9.2-1.5,13.7-2.9c-8.4,19.9-15.6,40.7-20.2,62c-8.5,2.4-17.1,4.3-25.9,5.6
				c14.4-12,19-34.4,9.7-51.4c-2-3.6-4.5-6.7-7.6-9.3C400.2,376.8,410.4,375.6,420.4,373.8L420.4,373.8z"/>
			<path class="st19" d="M372.8,379.1c12.1-0.8,16.1,0.1,21.5,10.1c7,12.9,5.4,30.4-4.2,42c-7.7,9.2-12,9-25.7,9.9
				c-9.2,0.6-18.5,0.9-27.8,0.4c8.1-3.7,15.1-9.4,19.5-17.5c5.4-10,5.9-22.3,1.2-32.7c-1.9-4.2-4.6-7.8-7.8-11
				C357.3,380,365,379.6,372.8,379.1z"/>
			<path class="st20" d="M329.4,381.1c13.8-0.6,18.1,0.9,22.7,8.7c2.8,4.7,4.4,10,4.6,15.7c0.3,10.4-4.6,20.5-12.6,27
				c-11.8,9.6-20,8.5-32.9,5.5c-8.1-1.9-15.8-4.9-22.7-9.4c4.3-1.7,8.3-4.1,11.7-7.5c4.9-4.9,7.8-11.5,9.2-18.3
				c2-9.7,2.4-13.9,0.9-21C316.6,381.7,323,381.4,329.4,381.1z"/>
			<path class="st18" d="M247.7,366.7c4.6,2,9.2,4,13.9,5.7c5.1,1.8,17.3,6.8,20.7-0.4c2.3-4.9-2.3-10.2-3.4-14.6
				c-0.3-1.2-1.1-4,0.3-4.8c1.5-0.9,4.6,1,5.9,1.7c5.7,3.4,9.7,9.4,13,15c7.6,12.9,10.2,27.5,1.1,42.9c-8.3,14-27.1,14.7-41.6,12.8
				c-11.9-1.5-30.6-3.8-33.4-18.1c-1.5-7.7-0.4-16.9,1.1-24.5c1.2-6,3.7-14.8,9.4-18.2C238.9,361.5,243.8,364.9,247.7,366.7
				L247.7,366.7z"/>
			<path class="st23" d="M276.6,369.2C276.7,369,276.9,369.2,276.6,369.2C276.6,369.2,276.6,369.2,276.6,369.2z"/>
			<path class="st23" d="M534.5,414.2c0,0,0,0.1,0,0.1c0,0,0,0,0,0C534.5,414.3,534.5,414.3,534.5,414.2z"/>
			<path class="st23" d="M536.4,419.2c-0.1-0.1,0-0.1,0.1,0.1c0,0,0,0,0,0c0,0,0,0,0,0C536.5,419.3,536.4,419.3,536.4,419.2z"/>
			<path class="st22" d="M515.4,417.4c-4.8,17.1-8.2,34.6-13,51.7c-0.9,3.4-2.5,5.2-6.8,5.7c-4,0.5-7.9-0.1-11.8-0.6
				c-3.3-0.5-6.6-0.9-9.9-1.4c-5-0.8-10.2-1.7-9.2-11.4c1.2-11.9,3.7-23.9,6-35.6c1-5.1,2-10.3,3.2-15.4c1.1-4.8,3.6-8.2,7.7-9.2
				c7.4-1.9,16-0.5,23,2.4C510.2,405.9,517.3,410.4,515.4,417.4L515.4,417.4z"/>
			<path class="st24" d="M537.3,483c-2.5,2.9-6.7,2.2-9.6,0.3c-4.4-2.8-5.4-7.1-2.3-11.4c3.4-4.7,7.3-4.6,10.9-0.2
				C539,475,539,480.9,537.3,483L537.3,483z"/>
			<path class="st25" d="M530.8,440.9c3.4-4.7,7.3-4.6,10.9-0.2c2.7,3.3,2.8,9.2,1,11.3c-2.5,2.9-6.7,2.2-9.6,0.3
				c-2.8-1.8-4.2-4.2-4-6.8c0,0,0,0.1,0,0.1c0,0,0,0,0,0c0-0.1,0-0.1,0-0.1C529.1,444,529.7,442.4,530.8,440.9L530.8,440.9z"/>
			<path class="st19" d="M567.4,391.1c-10.9,2.2-22.2,2.9-33.1,2.7c-24.4-0.4-49.1-5.5-71.8-14.6c-5,13.8-8.5,28.2-11,42.7
				c-2.3,13.3-4,27-3.3,40.5c0.4,6.8,1.7,13.9,6.4,19.1c4.8,5.2,12,8.1,18.4,10.6c19.4,7.5,41.5,10.3,61.7,5.1
				c10.2-2.6,14-4,15.7-12.7c0.3-1.5,0.6-3,0.9-4.5C557,450.4,560.6,420.4,567.4,391.1L567.4,391.1z M519.2,418.1
				c-0.5,1.8-0.9,3.5-1.4,5.3c-2.6,10.1-5,20.2-7.5,30.3c-1.2,4.7-2.3,9.5-3.6,14.2c-1,3.7-1.7,7.4-5.4,9.3
				c-3.8,1.9-8.4,1.8-12.5,1.5c-5.9-0.5-12.1-1.3-17.9-2.5c-9.7-2-10.6-9.8-9.7-17.2c1.7-13.9,4.4-27.7,7.2-41.4
				c0.6-3,1.3-6.1,2-9.1c0.4-1.7,0.8-3.7,1.5-5.4c2.6-5.4,10.9-6.5,16-6.5c7.7-0.1,15.9,1.7,22.6,5.6
				C516.2,405.5,521,411.1,519.2,418.1L519.2,418.1z M532.8,408.2c1.9-2.9,4.8-5.6,8.5-5.6c4.8,0,15.1,5.9,11.2,17.9
				c-0.7,2.1-2,4-4.2,5.1c-3.5,1.8-7.8,1.1-11.1-0.7c-3.5-2-6.5-5.5-6.6-9.7C530.5,412.7,531.4,410.3,532.8,408.2L532.8,408.2z
				 M527.3,439.2c1.9-2.9,4.8-5.6,8.5-5.6c4.8,0,15.1,5.9,11.2,17.9c-0.7,2.1-2,4-4.2,5.1c-3.5,1.8-7.8,1.1-11.1-0.7
				c-3.5-2-6.5-5.5-6.6-9.7C525.1,443.7,525.9,441.3,527.3,439.2z M541.6,482.6c-0.7,2.1-2,4-4.2,5.1c-3.5,1.8-7.8,1.1-11.1-0.7
				c-3.5-2-6.5-5.5-6.6-9.7c-0.1-2.5,0.8-4.9,2.1-7c1.9-2.9,4.8-5.6,8.5-5.6C535.2,464.7,545.5,470.5,541.6,482.6L541.6,482.6z"/>
			<path class="st26" d="M536.2,409.9c3.4-4.7,7.3-4.6,10.9-0.2c2.7,3.3,2.8,9.2,1,11.3c-2.5,2.9-6.7,2.2-9.6,0.3
				C534.1,418.5,533.1,414.2,536.2,409.9L536.2,409.9z"/>
			<path class="st27" d="M527.6,483.3c2.9,1.9,7.2,2.6,9.6-0.3c1.1-1.3,1.5-4.2,1-6.9c-1,1.9-2.8,3.4-5.1,4.2
				c-4.6,1.5-8.7-2.4-8.8-6.7C522.6,477.3,523.8,480.8,527.6,483.3L527.6,483.3z"/>
			<g>
				<path class="st28" d="M571,549.9c-0.1,0-0.2,0-0.3-0.1c-10.1-1.3-20.5,1.1-29.3,6c-9.8,5.4-16.8,15.7-28.7,16.2
					c-11,0.5-21.8-6.2-32.1-9.3c-11.4-3.3-23.5-0.3-35.1-1.5c-13.5-1.4-16.1-12.4-23.1-21.7c-7.3-9.8-21.5-17.5-34-15.5
					c2,0.5,3.9,1,5.8,1.7c11.6,4.2,21.6,12.5,27,23.6c4.8,9.8,5.2,20.7,2.7,31.1c9.9-7,20.9-12.4,33.1-13.6
					c10.2-1,21.1,0.9,30.9,3.6c8.7,2.4,17,6,24.5,11c4,2.6,7.5,5.7,10.9,8.9C529.3,569.8,549.5,553.2,571,549.9L571,549.9z"/>
				<path class="st28" d="M577,627.5c-14.9,0.8-18.6-8.5-17.1-18.9c-3.3,3.4-6.1,7.3-8.1,11.4c-4.4,8.8-0.8,11,3.9,18.2
					c3,4.7,6.3,9.3,10,13.5c1.6-4.8,4.3-9.2,8.4-12.8c5.7-5,11.9-9.4,18.3-13.5C587.2,626.5,582.1,627.2,577,627.5z"/>
				<path class="st28" d="M565.5,206c32.9,17.5,58.2,47,73.7,80.6c0.8-1.2,1.6-2.3,2.4-3.3c-0.9-16.7-7.6-32.4-17.4-45.9
					c-0.6-0.8-1.2-1.6-1.8-2.4c-7.3-6.2-15.1-11.6-22.6-16.1c-14.9-8.9-31.5-15.6-48.7-19.4C556,201.4,560.8,203.5,565.5,206
					L565.5,206z"/>
				<path class="st28" d="M413.9,432.8c2.1-9.9,4.9-19.8,8-29.5c-5.4,4.7-12.7,7.5-19.6,6.8c-0.9,10.9-6,21.4-14.3,28.3
					C396.7,437.1,405.4,435.3,413.9,432.8z"/>
				<path class="st28" d="M415,474.7c-0.1,7.2-0.7,15.3,3.6,21c5.6,7.4,15.2,11.7,23.6,14.9c11.8,4.5,24.4,7,37,8.3
					c12.6,1.3,25.6,1.3,38.1-1c6.2-1.1,12.8-2.9,18.5-6c5.2-2.9,7.6-4.8,9.2-7.9c-2.8,1.7-5.8,3.2-9,4.4c-8.7,3.3-18.2,4.6-27.4,5.1
					c-20.1,1.1-41-2.5-59.4-10.6c-8.6-3.8-17.5-9-23-16.7c-5.8-8.3-6.1-19.4-5.6-29c0.5-9.1,1.9-18.2,2.7-27.3
					c0.4-4.3,0.7-8.7,1.2-13C419,435.7,415.4,455.2,415,474.7L415,474.7z"/>
				<path class="st28" d="M572.1,425.5c-1.7-1.7-3-3.5-4-5.3c-1.1,6.3-2.1,12.7-3.1,19.1c5.3,3,10.5,6.3,15.5,9.8
					c-0.5-1.9-0.9-3.9-1.1-5.9c-0.3-3.9,0.1-7.9,1.2-11.7C577.5,430.1,574.7,428,572.1,425.5L572.1,425.5z"/>
				<path class="st28" d="M344.1,432.6c8-6.5,12.9-16.7,12.6-27c0-0.5-0.1-1.1-0.1-1.6c-4.1,8.2-12.1,14.6-21.3,18.2
					c-6.6,2.6-14,3.8-20.9,2c-5-1.3-8.1-4.4-10-8.4c-1.2,1.9-2.6,3.7-4.2,5.4c-3.4,3.4-7.4,5.8-11.7,7.5c6.9,4.5,14.7,7.5,22.7,9.4
					C324.1,441.1,332.3,442.3,344.1,432.6L344.1,432.6z"/>
				<path class="st28" d="M594.3,374.1c11.4-7,21.1-16.5,28.7-27.5c-7.8,6.6-16.4,12.4-25.2,17.3c-6.6,3.7-14.1,7.7-21.9,9.5
					c-4.7,2.2-9.6,3.9-14.9,5c-6.4,1.4-12.9,1.9-19.4,1.9c1.3,0.5,2.6,1,3.9,1.5C560.2,387.4,576.5,385,594.3,374.1z"/>
				<path class="st28" d="M382.4,616.9c7-6.1,10.1-8.7,8.1-23.6c-0.9-6.9-3.6-13.6-7.6-19.4c1.2,13.7-0.8,27.1-15.1,34.3
					c-6.9,3.5-14.8,3.5-22.4,1.6c2.9,6.4,5.7,13.1,7.4,19.9c0.5,2.2,0.7,4.4,0.7,6.5C364.4,632.4,373.8,624.4,382.4,616.9
					L382.4,616.9z"/>
				<path class="st28" d="M622.8,450.8c-2,1.7-3.9,3.6-5.4,5.7c-3.4,4.8-4.8,10.1-4.7,15.5c0.3,9.5,3.8,11.4,9.4,20.5
					c2.8,4.4,5.3,9,7.6,13.7c0.2-0.4,0.4-0.7,0.6-1.1c3.8-5.7,9.5-10,15.2-13.7c0.1-0.1,0.3-0.2,0.4-0.2c-5.7-1.4-11-4-15.5-8.3
					C621.8,474.6,620,462,622.8,450.8L622.8,450.8z"/>
			</g>
			<path class="st29" d="M311.2,389c12.3-5.7,28.8-6.7,40.3-0.2c-4.4-6.9-8.9-8.2-22-7.7c-6.4,0.3-12.8,0.5-19.2,0.9
				C310.8,384.6,311.1,386.8,311.2,389z"/>
			<path class="st29" d="M427.3,349.9c5.6,6.1,6.5,4.6,16.4,5.8c2.8,0.3,5.7,0.8,8.5,1.2c-6.1-3.7-11.8-8-16.7-13
				c-4.7-0.5-9.4-0.9-14.1-1.3C423.2,345.1,425.2,347.6,427.3,349.9L427.3,349.9z"/>
			<path class="st29" d="M363.7,558.5c-11.3-3.9-18.6,0.1-24.6,9.1c-1.5,2.3-3,4.7-4.4,7c9.1-8.5,20.3-14.5,32.1-14.9
				C365.8,559.3,364.7,558.9,363.7,558.5L363.7,558.5z"/>
			<path class="st29" d="M397.6,387c0.1,0.2,0.2,0.4,0.3,0.6c8.7-6.7,18.6-11.3,29-15c-2.2,0.4-4.4,0.8-6.5,1.2
				c-10.1,1.8-20.2,3-30.3,4C393.1,380.4,395.7,383.5,397.6,387z"/>
			<path class="st29" d="M574,390.8c-0.6,2.6-1.2,5.1-1.7,7.7c-0.2,0.8-0.3,1.6-0.5,2.3c7.9-1.5,16.2-1.6,24.1-0.3
				C588.9,396.4,581.6,393,574,390.8L574,390.8z"/>
			<path class="st29" d="M449.5,481.1c-0.3-0.4-0.5-0.8-0.8-1.2c-3.5-6.1-4.3-13.3-4.5-20.2c-0.3-14.4,1.5-28.8,4.2-43
				c2.5-13.3,5.9-26.5,10.4-39.2c-2-0.9-4-1.7-6-2.6c-4.9,14.1-8.6,28.6-11.1,43.3c-2.7,15.5-4.8,33.4-0.7,48.8
				C442.6,472.7,445.6,477.3,449.5,481.1L449.5,481.1z"/>
			<path class="st29" d="M664.3,462.5c-0.9-1.3-1.8-2.5-2.7-3.8c-6.8-9.1-7.7-13.6-19.1-14.5c-3.6-0.3-7.2,0.3-10.7,1.5
				c13.7,3.3,25.2,11,35.1,20.8C666.1,465.2,665.2,463.8,664.3,462.5z"/>
			<path class="st29" d="M610.2,603.7c-1.1-2.9-2.3-5.8-3.6-8.6c-0.3-0.6-0.6-1.3-0.9-1.9c-11.3-4-24.1-0.2-34,5.9
				c-0.4,0.2-0.8,0.5-1.2,0.8c8.5-1.8,16.8-2.3,26.3-0.5C601.6,600.1,606.1,601.4,610.2,603.7L610.2,603.7z"/>
			<path class="st29" d="M487.7,543.9c26,2.6,51.1-5.3,73.1-18.6c-2.4-2.5-4.4-4.4-5.5-5.6c-5.7,4.3-12,7.9-18.5,10.8
				c-23.4,10.3-49.6,10.3-74.1,4.3c-14.4-3.5-28.4-8.9-41.4-15.9c-4.7-2.6-9.4-5.4-13.8-8.6c7,6.8,16.4,11.8,24.6,16
				C449.3,535.2,468.2,542,487.7,543.9z"/>
			<path class="st29" d="M422.4,219.5c4.3-3.6,8.9-6.8,13.6-9.8c17.2-14.5,38-24.7,60-30c-14.4,1.3-28.5,5-41.6,11.2
				C439,198.2,429.9,206,422.4,219.5L422.4,219.5z"/>
			<path class="st30" d="M546.1,416.1c-4.4,3.3-9.4,0.2-11-4.1c-1.5,3.6-0.2,6.9,3.4,9.3c2.9,1.9,7.2,2.6,9.6-0.3
				c1.3-1.5,1.6-5,0.7-8.1C548.2,414.1,547.3,415.2,546.1,416.1z"/>
			<path class="st31" d="M711.3,537.8c-2.7,6-6.9,11.3-12.3,15.7c-5.1,4.1-11,6.5-17.4,7.6c-10.1,1.8-15.2-4-17.2-13.1
				c-1.6-7-2.1-17.4-9.5-21.1c-2.3-1.1-4.5-1.4-6.6-1.2c8.4,5,11.7,32.6,12.5,37.7c1,6.2,6.8,7.1,12.2,6.8c7-0.5,13.5-3,19.7-6.1
				c6.1-3.1,14-6.6,17.3-13C712.1,547.1,712.2,542.4,711.3,537.8z"/>
			<path class="st31" d="M391.9,279.3c-0.5,1.3-0.9,2.5-1.3,3.8c1.3,4.1,3.5,7.8,6.6,10.4c-0.3-3.6-0.4-7.2-0.3-10.8
				c0.2-6.4,1-12.7,2.3-18.9C396.2,268.9,393.8,274.4,391.9,279.3z"/>
			<path class="st31" d="M304.7,388c-0.9,6.2-2.8,12.2-6.8,17.4c-7.8,10.3-22.8,11.5-34.6,10.7c-12-0.8-25-5.1-31.6-15.9
				c-3.9-6.4-5.5-14.5-5.4-22.5c-0.4,1.6-0.8,3.1-1.1,4.6c-1.5,7.7-2.6,16.8-1.1,24.5c2.8,14.4,21.5,16.6,33.4,18.1
				c14.5,1.8,33.3,1.1,41.6-12.8C304.2,403.8,305.6,395.8,304.7,388L304.7,388z"/>
			<path class="st31" d="M604.2,637c8.8-4.5,18-8,27.7-10.2c0.9-0.2,1.9-0.4,2.8-0.6c-22.7,0-45,10.3-62.4,25.7
				c-1.6,3.7-2.2,7.8-2,12C577.2,651.4,592.2,643.2,604.2,637z"/>
			<path class="st31" d="M330.9,615.4c5.2,9.8,11.8,22.9,11.3,35c0.9-1.4,1.8-2.7,2.5-4.2c-1.8-13.9-6.4-27.4-13.9-39.4
				c-5.4-8.7-12.8-15.2-20.6-21.7c-3.2-2.6-6.9-5.6-10.9-7.8C312.8,587,323.3,601,330.9,615.4L330.9,615.4z"/>
			<path class="st31" d="M645,337.6c-0.2,0.2-0.4,0.3-0.6,0.5c-10.7,8.9-7.4-15.5-6.3-20.1c2.3-9.6,7.8-24.1,17-30.2
				c-0.2-0.4-0.3-0.7-0.5-1.1c-2.3-4.2-5.5-2-8,0.9c-5.8,6.7-8.8,16.2-11.1,24.6C628.7,338,626.3,363.5,645,337.6L645,337.6z"/>
			<path class="st31" d="M447.4,526.4c20.2,7.3,42.1,10.8,63.2,7.7c12.1-1.8,23.8-5.9,34.4-12.1c5-3,6.6-4.7,3.9-7.9
				C521.2,535,480.7,534.1,447.4,526.4L447.4,526.4z"/>
			<path class="st32" d="M274.4,380.8c4.5-0.3,7.7-3.7,8.8-7.8c0.7-2.4,0.1-4.9-0.9-7.4c0.7,2.1,1,4.3,0,6.4
				c-3.3,7.2-15.6,2.2-20.7,0.4c-4.7-1.7-9.3-3.7-13.9-5.7c-4-1.8-8.8-5.2-13.1-2.6c-1.7,1-3.1,2.6-4.3,4.4c8-4.8,17,3,24.4,7
				C260.6,378.7,267.7,381.2,274.4,380.8z"/>
			<path class="st32" d="M695.7,502.4c-8.8-11.5-16.7-15.9-29.7-13.3c-6,1.2-11.6,4.3-16.7,7.5c-3.8,2.5-7.8,5.3-11,8.7
				c-3.8,4.2-6,8.8-7.2,13.1c3.6-5.9,9.4-11,14.4-15.1c8.3-6.9,19.1-13.4,30.3-11.5c9.9,1.7,18.4,12.6,24.2,19.9
				c1.5,1.9,3,3.9,4.4,5.8C702,512.2,699.2,506.9,695.7,502.4L695.7,502.4z"/>
			<path class="st32" d="M328.2,590.2c-6.4-10.3-15.9-22.4-27.4-23.9c-3.6-0.5-7-0.2-10.2,0.5C306.2,568.7,317.7,578.7,328.2,590.2z
				"/>
			<path class="st32" d="M657.6,619.6c-2.8-2.6-6-4.7-9.9-6c-7.9-2.6-17.1,0.3-24.5,3.1c-1.7,0.7-3.4,1.4-5.2,2.1
				C631.1,615.6,644.9,615.4,657.6,619.6L657.6,619.6z"/>
			<path class="st33" d="M462,372.1c2.1,0.9,4.2,1.7,6.3,2.5c20.8,7.9,43.2,12.5,65.6,12.9c7.8,0.1,8.5-0.1,1.5-2.7
				c-4-1.5-8-2.8-12-4.2c-7.7,0.2-15.5-0.3-23.3-1.2C487.1,377.8,474.7,374.3,462,372.1L462,372.1z"/>
			<path class="st33" d="M602.1,196c-16.7-10.6-35.3-17.3-54.9-19.8c-6.2-0.8-12.9-1.6-19.8-2c24.9,3.5,49.1,13.4,69.6,27.9
				c20.2,14.3,38.5,34.7,46.6,58.5c-0.1-7.4-0.9-14.8-2.5-22C632.7,221.2,618.5,206.3,602.1,196L602.1,196z"/>
			<path class="st33" d="M534.7,497.2c10.2-2.6,14-4,15.7-12.7c0.3-1.5,0.6-3,0.9-4.5c0.1-0.6,0.2-1.1,0.3-1.7
				c-1.6,4.1-3.9,8-7.3,11c-4.3,3.8-11.8,3.8-17.2,4.5c-12.4,1.6-25.1,1.5-37.5-0.5c-10.8-1.8-26.3-6.3-32.8-16
				c-3.6-5.3-3.8-13.3-4.2-19.4c-0.7-9.7-0.4-19.6,0.1-29.3c0.4-6.5,0.7-13.3,1.4-20.1c-1,4.5-1.9,9-2.7,13.5
				c-2.3,13.3-4,27-3.3,40.5c0.4,6.8,1.7,13.9,6.4,19.1c4.8,5.2,12,8.1,18.4,10.6C492.3,499.6,514.4,502.4,534.7,497.2L534.7,497.2z
				"/>
			<path class="st33" d="M394,591.8c0.7,4.8,0.8,9.7,0.1,14.5c4.4-4.1,8.8-8.3,13.3-12.4c9.7-8.7,15.6-10.8,14.1-28.8
				c-1-11.3-6.7-21.5-15.6-28.4c-1-0.8-2-1.5-3-2.2c8.6,10.2,16.1,22.2,10.6,35.7C409.8,579.1,402.1,585.9,394,591.8L394,591.8z"/>
			<path class="st33" d="M533.2,602.1c3.1,4.1,5.9,8.5,8.6,12.9c1.6,2.6,3.1,5.3,4.6,7.9c1.4-3.8,3.2-7.3,5.5-10.7
				c0.5-0.7,1.1-1.5,1.7-2.2c-3.4-5-6.6-10.3-9-15.9c-4.2-9.7-4.4-18.9-1-27.3c-6.6,5.6-11.9,12.5-15.1,20.2
				C525.2,594.7,527.9,595.1,533.2,602.1L533.2,602.1z"/>
			<path class="st33" d="M596.4,450.8c-7.9-10-8.9-20.1-5.7-30.8c-6.5,8-8.7,19.5-6.7,27.2c2.4,9.4,7.8,9.3,25,27.3
				c-0.2-1.9-0.2-3.8-0.1-5.7c0.1-1.6,0.4-3.1,0.8-4.6C604.9,460.2,600.4,455.8,596.4,450.8z"/>
			<path class="st33" d="M369.6,431.1c-7,1.8-14.2,2.4-21.4,2.9c-3.4,3.1-7.4,5.6-11.6,7.5c9.3,0.5,18.6,0.2,27.8-0.4
				c13.7-1,18-0.7,25.7-9.9c4.3-5.2,7-11.6,8.1-18.3C392.4,422.6,380.2,428.4,369.6,431.1L369.6,431.1z"/>
			<path class="st34" d="M620,417.1c-5.2-4-9-8.6-18.8-4.8c-0.5,0.2-1,0.4-1.5,0.7c8.7,2.6,16.6,8.4,23.3,14.5
				c4.3,4,8.6,8.6,12.2,13.7c3.8-0.7,7.8-0.8,11.6,0C638.4,432.4,629.4,424.4,620,417.1z"/>
			<path class="st34" d="M372.8,379.1c-7.7,0.5-15.5,0.9-23.3,1.2c2.1,2.1,4,4.5,5.6,7.1c11.1-4.8,25-4.5,37.4-1.3
				C387.9,379,383.5,378.4,372.8,379.1L372.8,379.1z"/>
			<path class="st34" d="M603.7,588.6c-4-8.4-8.5-16.5-13.4-24.3c-4.6-7.3-8.3-12.6-20.6-10.2c-0.2,0-0.3,0.1-0.5,0.1
				c11.4,7.4,19.8,20.3,23.5,33.6C596.3,587.5,600.1,587.7,603.7,588.6z"/>
			<path class="st34" d="M451.5,185.2c5.3-2.5,10.7-4.6,16.3-6.4c20.2-13.3,45.7-17.3,69.8-17.2c1.6,0,3.2,0.1,4.8,0.1
				c-15.7-1.8-31.7-1.1-46.7,2.4C479.8,167.7,464.5,175.1,451.5,185.2L451.5,185.2z"/>
			<path class="st34" d="M379.3,526.9c-8.4,0.8-15.4,7.9-29.8,26.2c2.3-0.3,4.6-0.3,6.9-0.2C361.2,542.5,369.4,533.2,379.3,526.9
				L379.3,526.9z"/>
			<path class="st35" d="M664,658.3c7.8-9.4,7.7-18.5,1.2-23.4c-3.5,22.4-28.3,39.2-48.9,45.3c-10.3,3.1-36.1,3.9-42.8-7.7
				c-0.4,1.4-0.6,2.9-0.6,4.4c0,0.2,0,0.4,0,0.5c0.3,5.2,3.8,8.8,8.4,10.7c9.2,3.9,19.7,3.9,29.5,2.2
				C631.5,686.6,650.6,674.1,664,658.3z"/>
			<path class="st35" d="M554.8,493.9c-1,4.3-2.1,8.9-4.1,12.9c0,0,0,0.1-0.1,0.1c3.4,2.9,6.6,5.9,9.7,9
				c2.2-19.2,12.5-38.2,19.7-55.8c0.4-0.9,0.7-1.8,1.1-2.7c-5.5-4.1-11.3-8-17.3-11.4C561.3,462.1,558.6,478.1,554.8,493.9
				L554.8,493.9z"/>
			<path class="st35" d="M591.6,382.8c-3,1.5-6.1,3-9.4,4.1c3.5,1.4,6.9,2.9,10.2,4.7C592.3,388.7,592,385.7,591.6,382.8z"/>
			<path class="st35" d="M323.4,615c0-0.1-0.1-0.2-0.1-0.2c3.5,18.1,3.6,38.6-15.4,34.7c-13-2.7-24.2-16.8-31.9-26.6
				c-2-2.5-3.9-5.2-5.7-8c5.7,16.2,15.6,31.2,29.4,41.2c8.9,6.4,28.6,16.1,34.6,1.1c2.9-7.3,0.9-16.1-1.6-23.2
				C330.3,627.5,326.9,621.1,323.4,615L323.4,615z"/>
			<path class="st36" d="M313.7,621.6c-3.8-9.8-11-18.7-19-25.5c-21.1-18-24.6-7.3-15.7,13.3c3.4,7.9,9.8,18.3,18.5,26.3
				C312.3,649.1,324,641.3,313.7,621.6L313.7,621.6z"/>
			<path class="st36" d="M629.9,641.3c-9.3,2.2-20.2,7.7-28.3,13.7c-15.4,11.4-15.6,24.6,9.1,17.7c10.8-3,20.6-8.7,28.4-16.9
				C653.2,640.8,649.3,636.8,629.9,641.3L629.9,641.3z"/>
			<path class="st37" d="M529,445.6c0-0.1,0-0.1,0-0.1C529,445.5,529,445.5,529,445.6C529,445.6,529,445.6,529,445.6z"/>
			<path class="st37" d="M538,448c-3.6,0.3-6.6-2.1-8.3-5.3c-0.4,0.9-0.7,1.8-0.7,2.7c-0.2,2.6,1.2,5,4,6.8c2.9,1.9,7.2,2.6,9.6-0.3
				c1.1-1.3,1.5-4.2,1-6.9C542.4,446.7,540.5,447.8,538,448L538,448z"/>
			<path class="st38" d="M504.6,403.6c-0.5-0.2-1-0.4-1.5-0.6c1.8,4.5,3.2,9.1,3.4,14.3c0.3,8.4-2.2,17.7-5.3,25.4
				c-3.2,8.2-8.8,15.5-17.2,18.7c-6.9,2.6-13.3,0.4-18.9-3.6c-0.2,1.2-0.3,2.5-0.5,3.7c-1,9.6,4.1,10.6,9.2,11.4
				c3.3,0.5,6.6,0.9,9.9,1.4c3.9,0.5,7.8,1.1,11.8,0.6c4.3-0.5,5.9-2.4,6.8-5.7c4.8-17.1,8.3-34.6,13-51.7
				C517.3,410.4,510.2,405.9,504.6,403.6L504.6,403.6z"/>
			<path class="st38" d="M492.1,337.4c-27.9-6.4-72.1-12.9-87.9-40.3c1.6,13.7,5.9,27.2,12.7,38.7c19.5,1.4,38.9,3.7,58.1,7.3
				c17.3,3.2,34.4,7.3,51.2,12.5c7.5,2.4,14.8,5.1,22.3,7.6c5.8,1.9,12.2,4.4,18.3,4.7c5,0.3,10.1-1.5,14.7-3.3
				c5.8-2.3,11.3-5.2,16.7-8.4c9.5-5.7,19-12.4,26.9-20.3c0.3-3.9,0.8-7.8,1.4-11.7c-17.4,10.8-36.2,18.6-57.2,21.2
				C543,348.7,517.6,343.3,492.1,337.4L492.1,337.4z"/>
			<path class="st39" d="M474.2,218.1c-50.8,10.9-69.4,57.1-12.3,86.7c26.4,13.7,65.5,17.3,102.3,10.6c26.8-4.9,43.8-22.7,25-50.3
				C565.8,230.9,519.4,208.3,474.2,218.1z"/>
		</g>
	</g>
</g>
</svg>
